<svg viewBox="0 0 500 500" xmlns="http://www.w3.org/2000/svg"><g fill="none" fill-rule="evenodd"><path d="m250.5 390.08c131.17 0 237.5-152.55 237.5-152.55 0 0-106.33-159.53-237.5-159.53-131.17 0-237.5 159.53-237.5 159.53 0 0 106.33 152.55 237.5 152.55m.5-26.93c110.46 0 200-125.72 200-125.72 0 0-89.54-131.47-200-131.47-110.46 0-200 131.47-200 131.47 0 0 89.54 125.72 200 125.72m0-15.196c63.51 0 115-51.49 115-115 0-63.51-51.49-115-115-115-63.51 0-115 51.49-115 115 0 63.51 51.49 115 115 115" fill="#4a4a4a"/><path d="m210.05 229.73c3.633 1.914 6.299 3.789 7.998 5.625 1.699 1.836 2.969 3.721 3.809 5.654.84 1.934 1.26 4.15 1.26 6.65 0 2.227-.391 5.137-1.172 8.73l-1.465 6.68c-.781 3.633-1.172 6.328-1.172 8.09 0 2.383.928 4.404 2.783 6.06 1.855 1.66 5.674 2.49 11.455 2.49h9.08v9.08h-9.199c-10.703 0-17.598-1.719-20.684-5.156-3.086-3.438-4.629-7.324-4.629-11.66 0-2.305.293-4.785.879-7.441l1.055-4.688.996-5.098.703-3.105c.273-1.445.41-2.852.41-4.219 0-3.633-1.221-6.738-3.662-9.316-2.441-2.578-6.748-3.867-12.92-3.867h-5.215v-9.08h5.215c6.094 0 10.381-1.27 12.861-3.809 2.48-2.539 3.721-5.703 3.721-9.492 0-1.406-.137-2.773-.41-4.102l-.703-3.047-.996-5.098-1.055-4.688c-.586-2.695-.879-5.195-.879-7.5 0-4.297 1.543-8.174 4.629-11.631 3.086-3.457 9.98-5.186 20.684-5.186h9.199v9.141h-9.08c-5.742 0-9.551.83-11.426 2.49-1.875 1.66-2.813 3.701-2.813 6.123 0 1.719.391 4.395 1.172 8.03l1.465 6.68c.781 3.594 1.172 6.504 1.172 8.73 0 2.5-.42 4.717-1.26 6.65-.84 1.934-2.109 3.818-3.809 5.654-1.699 1.836-4.365 3.711-7.998 5.625m79.922 0c-3.633-1.914-6.299-3.789-7.998-5.625-1.699-1.836-2.959-3.721-3.779-5.654-.82-1.934-1.23-4.15-1.23-6.65 0-2.227.371-5.137 1.113-8.73l1.465-6.68c.781-3.633 1.172-6.328 1.172-8.09 0-2.383-.928-4.404-2.783-6.06-1.855-1.66-5.674-2.49-11.455-2.49h-9.08v-9.141h9.199c10.703 0 17.607 1.728 20.713 5.186 3.105 3.457 4.658 7.334 4.658 11.631 0 2.344-.312 4.844-.938 7.5l-1.055 4.688-.996 5.098-.703 3.047c-.273 1.484-.41 2.91-.41 4.277 0 3.594 1.221 6.68 3.662 9.258 2.441 2.578 6.748 3.867 12.92 3.867h5.215v9.08h-5.215c-6.094 0-10.381 1.279-12.861 3.838-2.48 2.559-3.721 5.732-3.721 9.521 0 1.367.137 2.715.41 4.04l.703 3.105.996 5.098 1.055 4.688c.625 2.695.938 5.195.938 7.5 0 4.336-1.553 8.213-4.658 11.631-3.105 3.418-10.01 5.127-20.713 5.127h-9.199v-9.08h9.08c5.781 0 9.6-.83 11.455-2.49 1.855-1.66 2.783-3.701 2.783-6.123 0-1.719-.391-4.395-1.172-8.03l-1.465-6.68c-.742-3.594-1.113-6.504-1.113-8.73 0-2.5.41-4.717 1.23-6.65.82-1.934 2.08-3.818 3.779-5.654 1.699-1.836 4.365-3.711 7.998-5.625" fill="#fff"/></g></svg>